<?xml version="1.0" encoding="UTF-8" standalone="no"?><!DOCTYPE svg PUBLIC "-//W3C//DTD SVG 1.1//EN" "http://www.w3.org/Graphics/SVG/1.1/DTD/svg11.dtd"><svg width="100%" height="100%" viewBox="0 0 1152 1152" version="1.1" xmlns="http://www.w3.org/2000/svg" xmlns:xlink="http://www.w3.org/1999/xlink" xml:space="preserve" xmlns:serif="http://www.serif.com/" style="fill-rule:evenodd;clip-rule:evenodd;stroke-linejoin:round;stroke-miterlimit:2;"><g><path id="path358-5" d="M149.976,214.358c-7.395,0.229 -13.435,9.986 -27.821,29.57c-59.891,81.534 -92.364,170.898 -106.057,291.856l-2.063,18.191l46.141,0.973l0,-0.007c25.376,0.541 47.203,0.586 48.503,0.053c1.299,-0.51 3.356,-9.917 4.573,-20.907c10.128,-91.419 35.494,-159.885 84.703,-228.619l22.412,-31.299l-34.443,-32.218c-19.802,-18.522 -28.555,-27.826 -35.95,-27.597l-0,0.002Zm711.934,196.143c-0.369,0.04 -0.847,0.232 -1.459,0.619c-8.605,7.163 -23.209,45.526 -31.668,83.184c-17.334,77.18 -31.735,107.431 -69.321,145.591c-44.719,45.406 -89.384,62.868 -152.843,59.773c-41.721,-2.036 -71.585,-12.221 -104.137,-35.518c-34.092,-24.399 -65.655,-65.423 -75.149,-97.673c-4.574,-15.536 -4.878,-15.782 -19.522,-15.782c-17.876,0 -18.155,1.547 -6.046,33.899c13.387,35.764 34.481,68.767 63.241,98.959c38.056,39.949 76.056,63.576 122.58,76.215c20.239,5.495 33.233,6.729 58.966,5.587c97.062,-4.308 171.771,-71.292 201.38,-180.551c8.762,-32.333 14.496,-93.505 11.793,-125.821c-1.178,-14.078 -0.478,-30.841 1.595,-38.336c0.39,-2.959 3.176,-10.409 0.59,-10.147l-0,0Zm180.698,185.485l0,8.276c0,20.067 -15.433,96.594 -24.977,123.861c-13.689,39.108 -37.569,85.296 -61.13,118.233c-10.414,14.557 -19.614,28.244 -20.445,30.414c-0.83,2.17 12.842,17.505 30.385,34.069c17.544,16.561 33.907,30.108 36.357,30.108c2.45,0 13.225,-11.69 23.946,-25.977c61.766,-82.31 100.086,-181.106 109.477,-282.253c1.609,-17.323 2.216,-32.679 1.35,-34.116c-0.866,-1.436 -22.589,-2.613 -48.272,-2.613l-46.691,0Zm-133.226,310.524l-26.321,21.859c-61.119,50.76 -115.962,79.621 -185.787,97.762c-17.389,4.518 -31.614,9.658 -31.614,11.427c0,1.769 5.395,22.863 11.99,46.877l11.99,43.664l22.752,-5.159c78.786,-17.854 182.69,-73.125 245.234,-130.455l19.447,-17.831l-33.846,-34.069l-33.846,-34.075Z" style="fill:url(#_Linear1);fill-rule:nonzero;"/><path id="path356-1" d="M577.055,14.036c-22.716,-0.037 -40.304,1.155 -48.211,3.92c-6.233,2.179 -13.306,8.231 -16.224,13.89c-4.535,8.795 -4.552,11.519 -0.142,22.104c4.291,10.299 7.746,12.834 23.519,17.266c10.168,2.857 45.85,8.538 79.288,12.624c72.894,8.908 103.479,15.004 120.802,24.092c17.231,9.04 44.892,33.684 41.602,37.063c-1.439,1.477 -21.979,-3.067 -45.646,-10.099c-49.37,-14.67 -65.031,-15.885 -75.068,-5.819c-9.807,9.836 -9.148,28.078 1.377,37.995c4.581,4.317 31.372,16.326 59.529,26.685c28.157,10.358 63.1,25.763 77.653,34.232c29.002,16.876 63.886,30.356 95.519,36.913c22.76,4.718 39.39,17.655 64.136,49.905c45.723,59.588 75.974,134.168 84.703,208.787l3.97,33.878l45.402,0.967l45.408,0.967l1.147,-10.351c1.82,-16.444 -5.975,-76.683 -15.566,-120.315c-20.614,-93.783 -62.483,-177.37 -124.466,-248.478c-55.573,-63.753 -133.693,-119.551 -198.862,-142.039c-37.433,-12.917 -151.723,-24.078 -219.87,-24.187Zm-116.826,14.122c-14.736,1.021 -65.761,16.06 -99.923,29.999c-59.421,24.246 -106.879,53.798 -157.512,98.088l-25.859,22.622l32.367,32.599c17.802,17.929 33.717,32.599 35.359,32.599c1.642,0 11.834,-7.968 22.65,-17.708c55.854,-50.299 144.407,-95.355 208.138,-105.901c8.121,-1.344 14.748,-2.697 14.731,-3.008c-0.255,-4.566 -24.477,-87.283 -26.009,-88.819c-0.469,-0.47 -1.837,-0.615 -3.942,-0.47l0,0Zm413.107,373.591c-9.199,-0.163 -16.008,21.936 -13.551,55.86c2.525,34.848 -3.059,94.741 -11.854,127.196c-23.679,87.377 -75.002,146.605 -149.267,172.242c-32.026,11.056 -85.554,11.096 -120.449,0.092c-73.445,-23.162 -142.803,-89.5 -173.865,-166.3c-15.86,-39.213 -15.67,-40.087 8.563,-40.384c34.099,-0.417 35.06,-2.351 12.207,-24.582c-30.78,-29.941 -95.449,-86.675 -98.797,-86.675c-2.493,0 -61.695,77.997 -89.263,117.6c-7.392,10.619 -7.476,11.324 -1.337,11.324c6.985,0 43.944,-6.233 53.531,-9.031c4.465,-1.302 7.393,3.262 13.076,20.389c17.756,53.515 48.09,102.408 91.699,147.81c57.222,59.574 120.193,94.202 191.86,105.5c30.317,4.779 86.015,1.423 116.249,-7.003c97.742,-27.239 171.93,-112.674 194.94,-224.488c11.871,-57.687 6.954,-145.287 -10.361,-184.546c-4.522,-10.254 -9.2,-14.925 -13.381,-14.999l0,-0.004Zm-857.516,194.244l2.443,33.504c8.16,111.916 43.322,212.596 104.727,299.852c26.649,37.868 85.561,97.371 122.566,123.8c82.195,58.702 136.355,75.625 265.503,82.96c60.675,3.446 106.348,2.026 118.855,-3.689c12.996,-5.938 18.632,-20.854 12.607,-33.361c-8.58,-17.811 -20.783,-21.57 -100.507,-30.972c-86.397,-10.189 -104.048,-13.437 -123.096,-22.656c-16.183,-7.832 -47.608,-38.274 -39.512,-38.274c2.909,0 24.734,5.474 48.496,12.162c23.762,6.687 47.011,12.169 51.665,12.196c13.216,0.053 24.543,-12.891 24.543,-28.059c0,-21.193 -7.306,-26.351 -63.723,-45.019c-29.728,-9.836 -61.721,-23.119 -75.563,-31.367c-28.099,-16.743 -57.143,-28.206 -97.467,-38.465c-33.575,-8.542 -41.446,-14.696 -73.195,-57.228c-41.163,-55.144 -69.844,-128.107 -79.526,-202.329l-4.309,-33.054l-94.508,0Z" style="fill:url(#_Linear2);fill-rule:nonzero;"/></g><defs><linearGradient id="_Linear1" x1="0" y1="0" x2="1" y2="0" gradientUnits="userSpaceOnUse" gradientTransform="matrix(1173.281793,716.6201,-716.6201,1173.281793,-91.500716,340.181522)"><stop offset="0" style="stop-color:#a8cbfe;stop-opacity:1"/><stop offset="1" style="stop-color:#92aed7;stop-opacity:1"/></linearGradient><linearGradient id="_Linear2" x1="0" y1="0" x2="1" y2="0" gradientUnits="userSpaceOnUse" gradientTransform="matrix(-908.572623,-544.048211,544.048211,-908.572623,922.608143,758.399973)"><stop offset="0" style="stop-color:#15344f;stop-opacity:1"/><stop offset="1" style="stop-color:#4e779b;stop-opacity:1"/></linearGradient></defs></svg>