<?xml version="1.0" encoding="UTF-8" standalone="no"?><!DOCTYPE svg PUBLIC "-//W3C//DTD SVG 1.1//EN" "http://www.w3.org/Graphics/SVG/1.1/DTD/svg11.dtd"><svg width="100%" height="100%" viewBox="0 0 1439 1433" version="1.1" xmlns="http://www.w3.org/2000/svg" xmlns:xlink="http://www.w3.org/1999/xlink" xml:space="preserve" xmlns:serif="http://www.serif.com/" style="fill-rule:evenodd;clip-rule:evenodd;stroke-linecap:round;stroke-linejoin:round;stroke-miterlimit:1.5;"><g><path d="M1332.67,284.514c-260.185,-326.174 -735.524,-379.669 -1061.698,-119.484c-310.642,247.796 -361.589,700.499 -113.794,1011.141c234.754,294.293 663.63,342.558 957.923,107.805c277.943,-221.712 323.527,-626.762 101.816,-904.705c-208.67,-261.593 -589.894,-304.496 -851.487,-95.826c-245.244,195.628 -285.465,553.025 -89.837,798.269c182.586,228.894 516.157,266.434 745.051,83.848c212.545,-169.544 247.403,-479.289 77.859,-691.833c-156.502,-196.195 -442.42,-228.372 -638.615,-71.87c-179.845,143.461 -209.341,405.552 -65.88,585.397c130.419,163.496 368.684,190.31 532.179,59.891c147.146,-117.377 171.279,-331.815 53.902,-478.961c-104.335,-130.797 -294.947,-152.248 -425.744,-47.913c-114.447,91.293 -133.217,258.079 -41.924,372.526c78.251,98.097 221.21,114.186 319.308,35.935c81.748,-65.209 95.155,-184.342 29.946,-266.09c-52.168,-65.398 -147.473,-76.124 -212.872,-23.956c-49.049,39.126 -57.093,110.605 -17.967,159.654c26.084,32.699 73.737,38.062 106.436,11.978c16.35,-13.042 19.031,-36.868 5.989,-53.218" style="fill:url(#_Linear1);stroke:#000;stroke-width:0.24px;"/><path d="M1326.303,283.488c61.946,0 112.238,50.292 112.238,112.238c0,61.946 -50.292,112.238 -112.238,112.238c-61.946,0 -112.238,-50.292 -112.238,-112.238c0,-61.946 50.292,-112.238 112.238,-112.238Zm0,84.179c15.486,0 28.06,12.573 28.06,28.06c0,15.486 -12.573,28.06 -28.06,28.06c-15.486,0 -28.06,-12.573 -28.06,-28.06c0,-15.486 12.573,-28.06 28.06,-28.06Z" style="fill:url(#_Linear2);"/></g><defs><linearGradient id="_Linear1" x1="0" y1="0" x2="1" y2="0" gradientUnits="userSpaceOnUse" gradientTransform="matrix(-589.168516,-305.101196,305.101196,-589.168516,994.417083,414.239508)"><stop offset="0" style="stop-color:#1e3f5b;stop-opacity:1"/><stop offset="1" style="stop-color:#5d809d;stop-opacity:1"/></linearGradient><linearGradient id="_Linear2" x1="0" y1="0" x2="1" y2="0" gradientUnits="userSpaceOnUse" gradientTransform="matrix(-248.07092,-167.277144,167.277144,-248.07092,1403.414702,463.947048)"><stop offset="0" style="stop-color:#a4c6f7;stop-opacity:1"/><stop offset="1" style="stop-color:#677a96;stop-opacity:1"/></linearGradient></defs></svg>